# xmcd CD database file
#
# Track frame offsets:
#	150
#	23855
#	44080
#	79022
#
# Disc length: 4440 seconds
#
# Revision: 0
# Processed by: cddbd v1.5PL3 Copyright (c) Steve Scherf et al.
# Submitted via: CDex 1.40Release
#
DISCID=2b115604
DTITLE=竹内めぐみ - イカロス
DYEAR=2004
DGENRE=Pop
TTITLE0=イカロス
TTITLE1=壊れモノ
TTITLE2=イカロス（Instrumental）
TTITLE3=データ
EXTD=YEAR: 2004
EXTT0=
EXTT1=
EXTT2=
EXTT3=
PLAYORDER=
